Coordinates
version=1
nRows=8
nColumns=36
inDegrees=yes

Units are S.I. units (second, meters, Newtons, ...)
If the header above contains a line with 'inDegrees', this indicates whether rotational values are in degrees (yes) or radians (no).

endheader
time	pelvis_tilt	pelvis_list	pelvis_rotation	pelvis_tx	pelvis_ty	pelvis_tz	hip_flexion_r	hip_adduction_r	hip_rotation_r	knee_angle_r	knee_angle_r_beta	ankle_angle_r	subtalar_angle_r	mtp_angle_r	hip_flexion_l	hip_adduction_l	hip_rotation_l	knee_angle_l	knee_angle_l_beta	ankle_angle_l	subtalar_angle_l	mtp_angle_l	lumbar_extension	lumbar_bending	lumbar_rotation	arm_flex_r	arm_add_r	arm_rot_r	elbow_flex_r	pro_sup_r	arm_flex_l	arm_add_l	arm_rot_l	elbow_flex_l	pro_sup_l
     15.16666670	     -2.88670671	      6.11741329	    180.18507470	      0.68827333	      1.11313898	      0.73966311	    -11.15745359	      7.71463823	      0.26386088	     12.00965918	      0.20960809	      7.39664980	     -6.50265445	     -7.49999987	     15.87460358	     -8.24570819	      0.97890515	      1.36235737	      0.02377762	     -8.60595888	     -4.01723391	     -7.49999987	    -16.69105891	      5.44660162	      9.26206619	     13.17029032	    -23.42929584	      2.81763479	     42.28014290	     94.19433881	     10.17060503	     -6.42345706	      5.47856966	     10.49297262	    102.78997358
     15.18333330	     -3.06006618	      6.02055227	    179.63860889	      0.68608986	      1.10886264	      0.74746197	    -11.63790101	      7.07806522	      0.54535600	     13.82844014	      0.24135181	      8.21175204	     -6.81848262	     -7.49999987	     15.64593353	     -7.82009333	      1.37311553	      1.90698283	      0.03328313	     -8.91327348	     -3.89340496	     -7.49999987	    -16.68353925	      5.40584855	      9.24532503	     13.10032830	    -23.50079036	      2.80930672	     42.39888741	     94.11229673	      9.67354583	     -6.26592427	      5.48371649	     10.61934157	    102.64389062
     15.20000000	     -3.42897892	      5.75947962	    178.93548070	      0.68529627	      1.10334352	      0.75336653	    -11.98939692	      6.10225091	      0.76679979	     16.37624528	      0.28581940	      9.06758319	     -6.56235705	     -7.49999987	     15.19295241	     -7.21934006	      1.65290294	      2.92586503	      0.05106598	    -10.14647816	     -4.86827852	     -7.49999987	    -17.05938356	      5.12899200	      9.30122499	     13.39418089	    -23.70515442	      4.29859953	     42.20893835	     91.82569329	      9.38245067	     -6.24210621	      7.25657688	     10.59605324	     99.54060229
     15.21666670	     -3.47953128	      5.50122116	    178.38823713	      0.68542183	      1.09836641	      0.75716391	    -11.43292533	      5.14617057	      0.83277272	     19.97064100	      0.34855344	      9.55507577	     -6.69261426	     -7.49999987	     15.23568135	     -6.61871723	      2.10978656	      4.41886408	      0.07712373	    -11.32150882	     -5.83849836	     -7.49999987	    -17.10034991	      4.83895598	      9.45813252	     13.28592110	    -23.38426231	      3.41893709	     41.88310040	     95.64349859	      9.40399168	     -6.05162942	      5.13549372	     10.69987974	    102.73554588
     15.23333330	     -3.55962510	      5.13045903	    177.95033462	      0.68521117	      1.09424126	      0.75849427	    -10.28071606	      4.14974244	      0.89502788	     24.67310036	      0.43062684	      9.86181334	     -7.00754275	     -7.49999987	     15.29995169	     -5.96018201	      2.60405194	      6.20679869	      0.10832907	    -12.11777095	     -6.91506160	     -7.49999987	    -17.27168507	      4.29616175	      9.67484880	     13.07333732	    -23.13384404	      3.44969308	     41.39298779	     95.63746163	      9.90569648	     -6.06498575	      5.41809599	     10.44895256	    102.87267094
     15.25000000	     -3.73307350	      4.61423083	    177.60263271	      0.68285382	      1.09105314	      0.75806471	     -8.73655946	      3.13860127	      1.01052109	     30.15854795	      0.52636596	      9.83849056	     -7.48589912	     -7.49999987	     15.18957899	     -5.23378889	      2.95268160	      8.10608864	      0.14147794	    -12.41978073	     -7.97407305	     -7.49999987	    -17.58993764	      3.45869833	      9.67023434	     12.91645609	    -22.68031552	      3.63832371	     40.85352601	     95.68521479	     10.42868352	     -6.23557287	      5.33611668	     10.46039167	    102.90451562
     15.26666670	     -3.75820491	      3.97807284	    177.49518704	      0.67927171	      1.08831771	      0.75791996	     -6.74507922	      2.11094146	      0.85643462	     35.98336294	      0.62802816	      9.48023285	     -7.69468034	     -7.49999987	     15.18167403	     -4.38928950	      3.46741965	     10.12739581	      0.17675640	    -12.29543104	     -9.27757703	     -7.49999987	    -17.57804282	      2.43806373	      9.55264833	     12.59322379	    -22.07957066	      3.80240945	     39.76725928	     95.63973695	     10.96978658	     -6.50200518	      5.29421665	     10.45214338	    102.79063149
     15.28333330	     -3.97956199	      3.23905287	    177.53497683	      0.67803505	      1.08670179	      0.75948905	     -4.72094956	      0.99602748	      0.56832396	     41.89868367	      0.73126998	      8.61723608	     -7.88108014	     -7.49999987	     14.83393014	     -3.46824498	      3.56231369	     12.00495976	      0.20952607	    -11.67070602	    -10.13909031	     -7.49999987	    -17.77400361	      1.30583121	      9.29463791	     12.35824485	    -21.29170229	      3.61849329	     38.37584425	     96.59425099	     11.70374263	     -6.87318709	      5.89367202	     10.28145358	    103.57511288
